<?xml version="1.0" encoding="UTF-8"?><svg xmlns="http://www.w3.org/2000/svg" xmlns:xlink="http://www.w3.org/1999/xlink" height="59.1" preserveAspectRatio="xMidYMid meet" version="1.0" viewBox="0.0 0.1 399.8 59.1" width="399.8" zoomAndPan="magnify"><g id="change1_1"><path d="M351.6,30.6l0.2,1.8c-1.8-0.4-3.5-0.5-4.9-1.2c-2.2-1.3-5-0.8-6.6,1.2c-1.6,1.8-2.7,1.6-4.2,0.3 c-0.5-0.3-1.1-0.6-1.7-0.8c-2.4,3-5.7,2.9-8.8,2.6c-0.8-0.1-1.4-1.4-2.1-2.1c-1.1,0.6-2.4,1.8-3.7,1.9s-2.8-1.1-4.7-2 c0.2,1.1,0.4,2.1,0.8,3.1c1.2,3,0.3,4.7-2.9,4.2c-2.1-0.3-3.9,0.3-5.8,0.7c-0.9,0-1.9-0.1-2.7-0.4c0.5-0.9,1.1-1.8,1.7-2.6 c0.3-0.3,0.9-0.4,1.3-1c-1.6,0-3-2.2-4.8,0.1c-0.8,1-2.5,1.4-4.3,2.2c0.1,0.3,0.5,1.2,1.1,2.6l-6,1c-0.4,0.1-0.9-0.1-1.2,0.1 c-1.8,1.5-3.2,1.1-4.7-0.5c-0.2-0.2-1.5,0.1-1.6,0.4c-0.7,2.1-2.3,1.3-3.5,1.2c-3.3-0.2-6.4-0.1-8.1,2c-1.8,0-2.9,0-3.9,0 c-3.2,0.1-6.3,0.2-9.5,0.5c-0.5,0-1,0.5-1.4,1.1c-2.2,0.1-4.6-0.9-6.3,1.7c-0.4,0.6-6.5-0.5-6.8-1.3c-0.1-0.7-0.1-1.3,0-2 c-1,0.6-2,1.6-3.1,1.8s-2.1-0.3-3.2-0.6l-0.7,2c-0.7-0.1-1.4-0.4-2-0.8c-1-0.8-1.7-2.1-2.8-2.8c-0.8-0.4-1.8-0.4-2.6,0 c-0.9,0.6-1.7,1.4-2.3,2.3c1.8-1.2,3.1-1.2,4.1,0.8c0.2,0.4,1.2,0.5,2.4,0.9c-0.8,0.4-1.3,0.9-1.7,0.9c-2.8-0.2-5.6-0.6-8.4-0.7 c-1.3-0.2-2.7-0.1-4,0.3c-3.1,1.4-6,1.6-9-1.1l0.2,2.7l-9.1,1.1l-0.5-0.7l-8.5,1.6l0.1,0.2c-1.8,0.1-3.5,0.2-5.3,0.2 c-0.5,0-0.9-0.1-1.3-0.4c-1.3-1-2.6-1.9-4-2.7c-0.6-0.3-1.6,0.1-2.5,0.2l1.3,3.7c-2.9-1-5-1.5-6.4,0.6l-12.7-1.3l-0.6,2 c-4-1.6-8-3.2-10,2.7c-2-2.8-2.3-2.8-3.9-1.2L133,55.6c-1.5,0.5-4.2,2.3-5.9,1.7c-4.7-1.8-9.5,1-14-0.8c-0.2-0.1-0.5,0-0.7,0.1 c-4.1,2.6-8.3,1.1-12.6,0.5c-0.9-0.1-1.8-0.1-2.6,0.2c-5.7,1.3-6.2,0.2-10.4-0.9c-0.6,0.5-1.1,1.2-1.4,1.2c-3.3-0.2-6.5-0.8-9.8-0.9 c-6-0.3-12-0.3-18-0.6c-1.2-0.1-2.4-0.9-3.7-1.2c-1-0.2-2,0-3-0.2c-0.6-0.1-1-0.7-1.6-0.6c-1.5-0.3-3-0.6-4.4-1 c-3-0.9-5.9-2-8.9-2.8c-2.1-0.6-4.3-0.8-6.7-1.2c-0.1-0.5-0.1-1.1-0.1-1.6c0.2-1.9-0.3-2.4-2.5-2.2c-2.8,0.1-5.5-0.5-8-1.8 c-3-1.4-6.1-2.4-9-4c-2.3-1.3-4.3-3.1-6.7-4.9c0.8-1.2,1.3-2.9,2.4-3.8s2.9-1,4.6-1.5v-1.2l4-0.9c1.6,1.7,1.6,1.7,3.6-1.6 c0.2,0.2,0.5,0.3,0.7,0.5c0.5,0.4,1.1,0.9,1.6,1.3c0.3-0.6,1-1.4,0.8-1.8c-0.3-0.7-1.1-1.6-1.8-1.7c-3.5-0.1-6.9-1.2-9.9-3.1 C8.3,20,7,20.1,5.8,19.8L5.5,19l-1,1.9L3.9,19H0c0.7-1.7,2.5-2.7,4.3-2.5c3.2-0.1,6.5-0.4,9.7-0.7c0.6-0.1,1.1-0.6,1.6-1 c0.8-0.5,1.7-1.6,2.5-1.5c3.2,0.2,6.3,0.7,9.4,1.1c0.7,0.1,1.5,0.1,2.2,0.1c3.5-0.1,6.9-0.2,10.4-0.3c1,0,1.9-0.3,2.8-0.4 c4.7-0.6,9.3-1.2,14-1.7c2.3-0.1,4.7-0.1,7,0.2c0.3,0,0.6,0.8,1,1.2c0.4,0.6,0.9,1.1,1.5,1.7c0.1,0.1,1-0.4,0.9-0.5 c-0.3-0.9-0.6-1.7-0.9-2.5c1.1,0,2.3-0.1,3.5-0.2s2.4-0.5,3.7-0.5c6-0.1,12-0.2,18-0.3c2,0,4-0.5,6-0.3c4.9,0.6,9.6-2,14.4-0.9 c2,0.4,3.5-0.3,5.2-0.4c2.3-0.2,4.7,0.3,7,0.2c2.1-0.1,4.3-1.1,6.3-0.8c2.6,0.4,4.8-0.3,7.2-0.8c1-0.2,2.1,0.2,3.1,0 c4.8-1.1,9.6-0.5,14.3,0.4c0.5,0.1,1,0.1,1.5,0c1.1-0.1,2.1-0.3,3.2-0.5c0.8-0.3,1.5-0.6,2.2-1c4.4-0.3,9.5-1.2,14.5-0.9 c4.3,0.2,8.6-1.7,12.6-0.4s7.6-1.8,11.7-0.4c1.9,0.7,4.6-1.1,7-1.2c2.1-0.1,4.3-1.6,6.4,0.2c0.2,0.2,0.9,0,1.4,0l8.2-1 c2.5-0.3,5-0.7,7.5-0.8c4.1-0.3,8.3-0.6,12.4-0.7c2.1,0,4.3,0.4,6.4,0.5c1.1,0,2.3-0.5,3.3-0.3c3.5,0.8,6.6-1.2,10-1.2 c3.2,0,6.4-0.1,9.6,0c0.7,0,1.5,0.3,2,0.8c2,2.5,4.9,1,7.3,1.9s3.5-0.3,3.6-3.2c0.7,0.1,1.4,0.2,2.1,0.3c0.7-0.1,1.5-0.3,2.2-0.5 c-0.5,1.1-1,1.9-1.6,3c3.3,0.1,6.2-0.3,8.9-2.3l-1.5,2.1c0.9,1,4,1.5,4.9,0.5c0.5-0.6,0.5-1.7,0.8-3.1c1.2-0.1,3.2-0.2,5.1-0.2 s4-0.1,6,0.1c1.4,0.1,3.1-0.2,3.3,2.1c0,0.3,0.8,0.6,1.3,0.9c0.8,0.4,1.5,0.8,2.3,1.2c-0.6,1-1,2.7-1.9,3c-1.7,0.6-3.7,0.4-5.6,0.6 c-0.8,0.1-1.5,0.4-2.3,0.5c-0.8,0-1.6-0.1-2.4-0.2L307,9.4c-2.2-0.2-3.7-5.1-6.7,0V6.7c-0.3-0.1-0.5-0.1-0.8-0.2 c-1.2,2.8-4.1,1.8-6.1,2.5c-1.2,0.4-2.7,0.1-4.5,0.1l-0.6-0.8l-7.9,1.4h-5.7c-0.3,0.8-0.5,1.6-0.5,2.4c0.1,0.6,0.4,1.1,1,1.3 c0.3,0.1,1-0.3,1.3-0.6c1.8-1.9,2.1-1.9,3.4,0.6c0.6-0.7,1.1-1.4,1.8-2.3c0.7,2.5,1.9,1.8,3.1,0.8c1.5-1.1,2.3-0.5,2.6,0.4l3.8,0.6 l-0.1-0.4l4.9-0.5c1.1-0.2,2.2-0.3,3.4-0.3c1.3,0.1,2.5,0.5,3.7,1c1.4,0.9,3.2,0.9,4.5,0c1-0.4,2.1-0.8,3.2-1c0.6-0.2,1.3-0.6,2.3-1 l1.9,1.8c2.2-1.8,4.8-1,7.4-0.7c0.9-0.1,1.7-0.3,2.5-0.6c2.9,1.7,6.3,2,9.5,1c2.1-0.7,4.4-0.6,6.5,0.2c3.2,1,6.5,1,9.3-1.6 c0.2,0.9,0.5,1.7,0.7,2.4l1.8-1.2c0.1,1.1,0.1,2,0.2,3.3l2.7-0.9l-1.6-3.2c-0.1,0,0.2-0.1,0.2,0c2.1,3.2,5.7,1.3,8.4,2.4 c0.8,0.3,2.1-0.7,3.2-1c0.7,0.5-1.8,2.2,0.7,2l-2.6,1.7c1.1,1.2,1.9,1,4.1-1.5l-1.5-0.2c1.5-2,3-0.5,4,0.4c1.8,1.4,3.3,1.8,5.2,0.4 c0.5-0.2,1-0.4,1.6-0.4l2.4-0.5l1.2,1.6c0.2,0,0.4-0.1,0.6-0.2c0.5-0.4,1.1-0.8,1.6-1.3c0.2,0.3,0.4,0.6,0.6,0.9 c-0.5,0.5-1,1.1-1.5,1.2c-2.2,0.2-1.7,1.6-1.4,2.8c0.4,0.5,1.1,0.6,1.7,0.5c2-1.2,3.9-2.8,5.9-4c0.7-0.4,1.8-0.1,2.8-0.1 c-0.2,2.6,1.6,2,3,2.3l0.3-2.7c1.8,1.5,1.8,4.7,5.3,3.5l-0.3,1.1l-4.5,1v0.3c-1,0.2-2.1,0.7-3,0.4c-1.1-0.3-2-1.3-3.6-2.5l0.5,2.4 l-5,0.2c-0.5,1.4-0.9,2.6-1.4,4.3c-1-1.3-1.5-2-2-2.7l-0.5,0.2c0,0.5,0.1,1,0.1,1.7c-5.2-1.6-9.7,0.8-14.3,1.4 c-1.3-0.4-2.6-0.6-3.9-0.8c-0.6,0-1.1,0.3-1.4,0.8c-1,1.8-1,1.8-3,1.2v-1.9l-0.4-0.1l-1.5,2.4l-2.6-3.1l-4,2.3l2.3,3.3L351.6,30.6z M254.6,12.1l-0.1-0.5c-0.8,0.1-1.6,0.3-2.4,0.5c-0.1,0-0.2,1-0.1,1c0.9,0.3,1.8,0.4,2.7,0.8c0.7,0.2,1.3,0.5,1.9,1 c1,1,1.7,1.5,2.5-0.1c0.2-0.3,1.5-0.5,2-0.2c1.1,0.6,1.7,0.5,1.9-0.7s-2.3-3-3.5-2.7C257.9,11.5,256.2,11.8,254.6,12.1z M201.8,15.7 c-0.1-0.1-0.8-0.5-1.4-0.8c-0.4-0.2-1-0.8-1.1-0.7c-0.5,0.3-1.1,0.9-1.1,1.4c0,0.6,0.2,1.3,0.4,1.8c1.9-0.1,3.7-0.1,5.6,0 c2,0.3,2.1-0.9,1.9-2.2c-0.1-0.6-1.1-1.6-1.3-1.5C203.8,14.3,202.8,15,201.8,15.7L201.8,15.7z M136.8,23.4c1.4-0.5,2.5-1.4,3.3-1.2 c2,0.7,2.5-0.1,2.7-2h-7.2L136.8,23.4z M178.3,16.7c-1.2,1.8-0.7,2.9,1.4,3.2c0.4,0.1,0.8,0.2,1.1,0.4c1.1,0.5,2.3,1.1,3-0.6 c0.5-1.5,0.4-2.7-1.6-3.1l-0.5,3.1L178.3,16.7z M243.6,12.8l-0.1,0.7l6.3,1.8c0.2-0.7,0.5-1.8,0.8-2.9L243.6,12.8z M234.6,15.8 l-0.1,1.2c1.4,0.4,2.9,0.7,4.4,0.8c0.6,0,1.1-1.3,1.6-2l-0.5-0.5c-0.9,0.3-1.7,0.5-2.6,0.7C236.4,16,235.5,16,234.6,15.8L234.6,15.8 z M67.5,22.6c0,0.7,0.2,1.4,0.4,2c0.1,0.2,1.2-0.2,1.9-0.3s1.2-0.2,1.8-0.3c0.5-0.1,1-0.2,1.4-0.4c0.1,0,0-0.8-0.1-0.8 c-0.5-0.2-1-0.3-1.5-0.3C70.3,22.5,69.2,22.6,67.5,22.6z M196.5,18.8c1.7-2.1,1.7-2.3-1.5-4.4l-0.7,2.1L196.5,18.8z M355.7,15.6 l0.1,1l6.7-0.8l-0.1-1.3C360.2,14.6,357.9,15,355.7,15.6L355.7,15.6z M345,16.1c1.2,0.8,2.3,1.7,3.4,2.4c0.4,0.2,1,0,1.5,0 c0-0.4,0-1-0.2-1.3c-0.9-1.6-2.9-2.1-4.5-1.2C345,16,345,16,345,16.1L345,16.1z M122.6,21.1l-6.5-1l-0.2,0.4l3,2.5L122.6,21.1z M32.3,24.2l-0.1-0.8l-4.6-0.6l0.8,2.5L32.3,24.2z M268,11.2l-3.3,0.2l2,4.4C267.2,14,267.6,12.8,268,11.2L268,11.2z M287.4,37.7 l1.2,3.3l2.8-1.9L287.4,37.7z M132.9,19.1c-0.1,1.6-0.3,3-0.5,4.8C135,22,135.1,20.8,132.9,19.1z M283.2,34.8 c0.1,0.4,0.2,0.8,0.2,1.2c0.9,0.1,1.8,0.1,2.7-0.1c0.3-0.1,0.4-1.1,0.8-2.4L283.2,34.8z M35.8,26.7c1.6-2.8,1.3-3-2.3-3L35.8,26.7z M186.2,15l-0.4,0.8c0.4,0.6,0.8,1.2,1.2,1.7c0.3,0.3,0.8,0.3,1.1,0.5c0.1-0.5,0.4-1.2,0.3-1.4C187.8,15.9,187,15.4,186.2,15z M126.1,20.5l3.4,0.9C128.2,18.5,127.6,18.4,126.1,20.5z M62.6,22.8l-0.2,0.7l3.8,1.7l-1.4-3L62.6,22.8z M336,4.1 c3.7-0.1,4.4,0.6,4.5,4.6c-1.3-1-2.4-1.9-3.3-2.6c-1.6,0.6-3.3,1.2-5.1,1.7c-0.2,0.1-0.6-0.4-0.9-0.7c0.6-0.7,1.2-1.3,1.9-1.8 C334.1,4.8,335.1,4.4,336,4.1z M340.2,2.7l4.3,0.7l0.5,1.4l4.1-1.5l0.4,0.8l-4.4,2.4L340.2,2.7z M323.9,1l6.4,2.1l-4.5,2.1 C325.2,3.7,324.5,2.3,323.9,1z M351.7,30.7c0.3-0.8,0.6-1.5,1.1-2.2c1.2,0.4,2.4,0.9,3.5,1.4l-0.2,0.7L351.7,30.7L351.7,30.7z M364.2,4.1c-0.6,0.6-1.3,1-2.1,1.4c-0.6,0.1-1.2,0-1.7-0.3c-0.3-0.2-0.4-0.8-0.5-1.2c0.5-0.2,1-0.6,1.4-0.5 C362.2,3.7,363.2,3.9,364.2,4.1z M325.3,36.8c-0.8,0.6-1.3,1.2-1.5,1.2c-0.6-0.4-1.1-0.9-1.4-1.4c0-0.1,0.6-0.9,0.8-0.8 C324,35.9,324.7,36.3,325.3,36.8z" fill="#E2CDC1"/></g></svg>